<svg aria-roledescription="er" viewBox="-39.85589599609375 0 783.5804443359375 752" style="max-width: 783.58px; background-color: white;" xmlns:xlink="http://www.w3.org/1999/xlink" xmlns="http://www.w3.org/2000/svg" width="100%" id="mermaid-0"><style>#mermaid-0{font-family:"trebuchet ms",verdana,arial,sans-serif;font-size:16px;fill:#000000;}#mermaid-0 .error-icon{fill:#552222;}#mermaid-0 .error-text{fill:#552222;stroke:#552222;}#mermaid-0 .edge-thickness-normal{stroke-width:2px;}#mermaid-0 .edge-thickness-thick{stroke-width:3.5px;}#mermaid-0 .edge-pattern-solid{stroke-dasharray:0;}#mermaid-0 .edge-pattern-dashed{stroke-dasharray:3;}#mermaid-0 .edge-pattern-dotted{stroke-dasharray:2;}#mermaid-0 .marker{fill:#000000;stroke:#000000;}#mermaid-0 .marker.cross{stroke:#000000;}#mermaid-0 svg{font-family:"trebuchet ms",verdana,arial,sans-serif;font-size:16px;}#mermaid-0 .entityBox{fill:#cde498;stroke:#13540c;}#mermaid-0 .attributeBoxOdd{fill:#ffffff;stroke:#13540c;}#mermaid-0 .attributeBoxEven{fill:#f2f2f2;stroke:#13540c;}#mermaid-0 .relationshipLabelBox{fill:hsl(78.1578947368, 58.4615384615%, 84.5098039216%);opacity:0.7;background-color:hsl(78.1578947368, 58.4615384615%, 84.5098039216%);}#mermaid-0 .relationshipLabelBox rect{opacity:0.5;}#mermaid-0 .relationshipLine{stroke:#000000;}#mermaid-0 .entityTitleText{text-anchor:middle;font-size:18px;fill:#000000;}#mermaid-0 :root{--mermaid-font-family:"trebuchet ms",verdana,arial,sans-serif;}</style><g/><defs><marker orient="auto" markerHeight="18" markerWidth="18" refY="9" refX="0" id="ONLY_ONE_START"><path d="M9,0 L9,18 M15,0 L15,18" fill="none" stroke="gray"/></marker></defs><defs><marker orient="auto" markerHeight="18" markerWidth="18" refY="9" refX="18" id="ONLY_ONE_END"><path d="M3,0 L3,18 M9,0 L9,18" fill="none" stroke="gray"/></marker></defs><defs><marker orient="auto" markerHeight="18" markerWidth="30" refY="9" refX="0" id="ZERO_OR_ONE_START"><circle r="6" cy="9" cx="21" fill="white" stroke="gray"/><path d="M9,0 L9,18" fill="none" stroke="gray"/></marker></defs><defs><marker orient="auto" markerHeight="18" markerWidth="30" refY="9" refX="30" id="ZERO_OR_ONE_END"><circle r="6" cy="9" cx="9" fill="white" stroke="gray"/><path d="M21,0 L21,18" fill="none" stroke="gray"/></marker></defs><defs><marker orient="auto" markerHeight="36" markerWidth="45" refY="18" refX="18" id="ONE_OR_MORE_START"><path d="M0,18 Q 18,0 36,18 Q 18,36 0,18 M42,9 L42,27" fill="none" stroke="gray"/></marker></defs><defs><marker orient="auto" markerHeight="36" markerWidth="45" refY="18" refX="27" id="ONE_OR_MORE_END"><path d="M3,9 L3,27 M9,18 Q27,0 45,18 Q27,36 9,18" fill="none" stroke="gray"/></marker></defs><defs><marker orient="auto" markerHeight="36" markerWidth="57" refY="18" refX="18" id="ZERO_OR_MORE_START"><circle r="6" cy="18" cx="48" fill="white" stroke="gray"/><path d="M0,18 Q18,0 36,18 Q18,36 0,18" fill="none" stroke="gray"/></marker></defs><defs><marker orient="auto" markerHeight="36" markerWidth="57" refY="18" refX="39" id="ZERO_OR_MORE_END"><circle r="6" cy="18" cx="9" fill="white" stroke="gray"/><path d="M21,18 Q39,0 57,18 Q39,36 21,18" fill="none" stroke="gray"/></marker></defs><path style="stroke: gray; fill: none;" marker-start="url(#ZERO_OR_ONE_START)" marker-end="url(#ONLY_ONE_END)" d="M195,492.3881759815003L188.23825073242188,501.6568133179169C181.47650146484375,510.9254506543336,167.9530029296875,529.4627253271668,155.17775619811144,547.0646959969167C142.40250946653535,564.6666666666666,130.37551453853942,581.3333333333334,124.36201707454148,589.6666666666666L118.34851961054353,598" class="er relationshipLine"/><path style="stroke: gray; fill: none;" marker-start="url(#ZERO_OR_MORE_START)" marker-end="url(#ZERO_OR_ONE_END)" d="M297.1923421223958,498L299.9701199001736,506.3333333333333C302.74789767795136,514.6666666666666,308.3034532335069,531.3333333333334,311.08123101128473,551.6666666666666C313.8590087890625,572,313.8590087890625,596,313.8590087890625,608L313.8590087890625,620" class="er relationshipLine"/><path style="stroke: gray; fill: none;" marker-start="url(#ZERO_OR_MORE_START)" marker-end="url(#ONLY_ONE_END)" d="M233.48868346728867,198L238.550404354251,206.33333333333334C243.61212524121325,214.66666666666666,253.7355670151379,231.33333333333334,258.7972879021002,248C263.8590087890625,264.6666666666667,263.8590087890625,281.3333333333333,263.8590087890625,289.6666666666667L263.8590087890625,298" class="er relationshipLine"/><path style="stroke: gray; fill: none;" marker-start="url(#ZERO_OR_ONE_START)" marker-end="url(#ONLY_ONE_END)" d="M110.57049560546875,169.03532569475897L95.4754130045573,182.19610474563248C80.38033040364583,195.35688379650597,50.190165201822914,221.678441898253,35.09508260091146,259.8392209491265C20,298,20,348,20,398C20,448,20,498,23.56125356125356,531.3333333333334C27.12250712250712,564.6666666666666,34.24501424501424,581.3333333333334,37.806267806267805,589.6666666666666L41.36752136752136,598" class="er relationshipLine"/><g transform="translate(20,598 )" id="entity-Measure-836594bf-ef73-423e-b39a-dab08ef8b9a9"><rect height="134" width="100" y="0" x="0" class="er entityBox"/><text style="dominant-baseline: middle; text-anchor: middle; font-size: 12px;" transform="translate(50,12)" y="0" x="0" id="text-entity-Measure-836594bf-ef73-423e-b39a-dab08ef8b9a9" class="er entityLabel">Measure</text><rect height="22" width="50" y="24" x="0" class="er attributeBoxOdd"/><text style="dominant-baseline: middle; font-size: 10.2px;" transform="translate(5,35)" y="0" x="0" id="text-entity-Measure-836594bf-ef73-423e-b39a-dab08ef8b9a9-attr-1-type" class="er entityLabel">KG</text><rect height="22" width="50" y="24" x="50" class="er attributeBoxOdd"/><text style="dominant-baseline: middle; font-size: 10.2px;" transform="translate(55,35)" y="0" x="0" id="text-entity-Measure-836594bf-ef73-423e-b39a-dab08ef8b9a9-attr-1-name" class="er entityLabel">KG</text><rect height="22" width="50" y="46" x="0" class="er attributeBoxEven"/><text style="dominant-baseline: middle; font-size: 10.2px;" transform="translate(5,57)" y="0" x="0" id="text-entity-Measure-836594bf-ef73-423e-b39a-dab08ef8b9a9-attr-2-type" class="er entityLabel">M2</text><rect height="22" width="50" y="46" x="50" class="er attributeBoxEven"/><text style="dominant-baseline: middle; font-size: 10.2px;" transform="translate(55,57)" y="0" x="0" id="text-entity-Measure-836594bf-ef73-423e-b39a-dab08ef8b9a9-attr-2-name" class="er entityLabel">M2</text><rect height="22" width="50" y="68" x="0" class="er attributeBoxOdd"/><text style="dominant-baseline: middle; font-size: 10.2px;" transform="translate(5,79)" y="0" x="0" id="text-entity-Measure-836594bf-ef73-423e-b39a-dab08ef8b9a9-attr-3-type" class="er entityLabel">M</text><rect height="22" width="50" y="68" x="50" class="er attributeBoxOdd"/><text style="dominant-baseline: middle; font-size: 10.2px;" transform="translate(55,79)" y="0" x="0" id="text-entity-Measure-836594bf-ef73-423e-b39a-dab08ef8b9a9-attr-3-name" class="er entityLabel">M</text><rect height="22" width="50" y="90" x="0" class="er attributeBoxEven"/><text style="dominant-baseline: middle; font-size: 10.2px;" transform="translate(5,101)" y="0" x="0" id="text-entity-Measure-836594bf-ef73-423e-b39a-dab08ef8b9a9-attr-4-type" class="er entityLabel">UN</text><rect height="22" width="50" y="90" x="50" class="er attributeBoxEven"/><text style="dominant-baseline: middle; font-size: 10.2px;" transform="translate(55,101)" y="0" x="0" id="text-entity-Measure-836594bf-ef73-423e-b39a-dab08ef8b9a9-attr-4-name" class="er entityLabel">UN</text><rect height="22" width="50" y="112" x="0" class="er attributeBoxOdd"/><text style="dominant-baseline: middle; font-size: 10.2px;" transform="translate(5,123)" y="0" x="0" id="text-entity-Measure-836594bf-ef73-423e-b39a-dab08ef8b9a9-attr-5-type" class="er entityLabel">KT</text><rect height="22" width="50" y="112" x="50" class="er attributeBoxOdd"/><text style="dominant-baseline: middle; font-size: 10.2px;" transform="translate(55,123)" y="0" x="0" id="text-entity-Measure-836594bf-ef73-423e-b39a-dab08ef8b9a9-attr-5-name" class="er entityLabel">KT</text></g><g transform="translate(195,298 )" id="entity-products-0dbca17b-d088-4f62-83bc-3814fd7513c2"><rect height="200" width="137.718017578125" y="0" x="0" class="er entityBox"/><text style="dominant-baseline: middle; text-anchor: middle; font-size: 12px;" transform="translate(68.8590087890625,12)" y="0" x="0" id="text-entity-products-0dbca17b-d088-4f62-83bc-3814fd7513c2" class="er entityLabel">products</text><rect height="22" width="54.095550537109375" y="24" x="0" class="er attributeBoxOdd"/><text style="dominant-baseline: middle; font-size: 10.2px;" transform="translate(5,35)" y="0" x="0" id="text-entity-products-0dbca17b-d088-4f62-83bc-3814fd7513c2-attr-1-type" class="er entityLabel">String</text><rect height="22" width="60.934783935546875" y="24" x="54.095550537109375" class="er attributeBoxOdd"/><text style="dominant-baseline: middle; font-size: 10.2px;" transform="translate(59.095550537109375,35)" y="0" x="0" id="text-entity-products-0dbca17b-d088-4f62-83bc-3814fd7513c2-attr-1-name" class="er entityLabel">id</text><rect height="22" width="22.68768310546875" y="24" x="115.03033447265625" class="er attributeBoxOdd"/><text style="dominant-baseline: middle; font-size: 10.2px;" transform="translate(120.03033447265625,35)" y="0" x="0" id="text-entity-products-0dbca17b-d088-4f62-83bc-3814fd7513c2-attr-1-key" class="er entityLabel">PK</text><rect height="22" width="54.095550537109375" y="46" x="0" class="er attributeBoxEven"/><text style="dominant-baseline: middle; font-size: 10.2px;" transform="translate(5,57)" y="0" x="0" id="text-entity-products-0dbca17b-d088-4f62-83bc-3814fd7513c2-attr-2-type" class="er entityLabel">String</text><rect height="22" width="60.934783935546875" y="46" x="54.095550537109375" class="er attributeBoxEven"/><text style="dominant-baseline: middle; font-size: 10.2px;" transform="translate(59.095550537109375,57)" y="0" x="0" id="text-entity-products-0dbca17b-d088-4f62-83bc-3814fd7513c2-attr-2-name" class="er entityLabel">name</text><rect height="22" width="22.68768310546875" y="46" x="115.03033447265625" class="er attributeBoxEven"/><text style="dominant-baseline: middle; font-size: 10.2px;" transform="translate(120.03033447265625,57)" y="0" x="0" id="text-entity-products-0dbca17b-d088-4f62-83bc-3814fd7513c2-attr-2-key" class="er entityLabel"/><rect height="22" width="54.095550537109375" y="68" x="0" class="er attributeBoxOdd"/><text style="dominant-baseline: middle; font-size: 10.2px;" transform="translate(5,79)" y="0" x="0" id="text-entity-products-0dbca17b-d088-4f62-83bc-3814fd7513c2-attr-3-type" class="er entityLabel">Decimal</text><rect height="22" width="60.934783935546875" y="68" x="54.095550537109375" class="er attributeBoxOdd"/><text style="dominant-baseline: middle; font-size: 10.2px;" transform="translate(59.095550537109375,79)" y="0" x="0" id="text-entity-products-0dbca17b-d088-4f62-83bc-3814fd7513c2-attr-3-name" class="er entityLabel">price</text><rect height="22" width="22.68768310546875" y="68" x="115.03033447265625" class="er attributeBoxOdd"/><text style="dominant-baseline: middle; font-size: 10.2px;" transform="translate(120.03033447265625,79)" y="0" x="0" id="text-entity-products-0dbca17b-d088-4f62-83bc-3814fd7513c2-attr-3-key" class="er entityLabel"/><rect height="22" width="54.095550537109375" y="90" x="0" class="er attributeBoxEven"/><text style="dominant-baseline: middle; font-size: 10.2px;" transform="translate(5,101)" y="0" x="0" id="text-entity-products-0dbca17b-d088-4f62-83bc-3814fd7513c2-attr-4-type" class="er entityLabel">Decimal</text><rect height="22" width="60.934783935546875" y="90" x="54.095550537109375" class="er attributeBoxEven"/><text style="dominant-baseline: middle; font-size: 10.2px;" transform="translate(59.095550537109375,101)" y="0" x="0" id="text-entity-products-0dbca17b-d088-4f62-83bc-3814fd7513c2-attr-4-name" class="er entityLabel">iva</text><rect height="22" width="22.68768310546875" y="90" x="115.03033447265625" class="er attributeBoxEven"/><text style="dominant-baseline: middle; font-size: 10.2px;" transform="translate(120.03033447265625,101)" y="0" x="0" id="text-entity-products-0dbca17b-d088-4f62-83bc-3814fd7513c2-attr-4-key" class="er entityLabel"/><rect height="22" width="54.095550537109375" y="112" x="0" class="er attributeBoxOdd"/><text style="dominant-baseline: middle; font-size: 10.2px;" transform="translate(5,123)" y="0" x="0" id="text-entity-products-0dbca17b-d088-4f62-83bc-3814fd7513c2-attr-5-type" class="er entityLabel">Decimal</text><rect height="22" width="60.934783935546875" y="112" x="54.095550537109375" class="er attributeBoxOdd"/><text style="dominant-baseline: middle; font-size: 10.2px;" transform="translate(59.095550537109375,123)" y="0" x="0" id="text-entity-products-0dbca17b-d088-4f62-83bc-3814fd7513c2-attr-5-name" class="er entityLabel">sale_price</text><rect height="22" width="22.68768310546875" y="112" x="115.03033447265625" class="er attributeBoxOdd"/><text style="dominant-baseline: middle; font-size: 10.2px;" transform="translate(120.03033447265625,123)" y="0" x="0" id="text-entity-products-0dbca17b-d088-4f62-83bc-3814fd7513c2-attr-5-key" class="er entityLabel"/><rect height="22" width="54.095550537109375" y="134" x="0" class="er attributeBoxEven"/><text style="dominant-baseline: middle; font-size: 10.2px;" transform="translate(5,145)" y="0" x="0" id="text-entity-products-0dbca17b-d088-4f62-83bc-3814fd7513c2-attr-6-type" class="er entityLabel">String</text><rect height="22" width="60.934783935546875" y="134" x="54.095550537109375" class="er attributeBoxEven"/><text style="dominant-baseline: middle; font-size: 10.2px;" transform="translate(59.095550537109375,145)" y="0" x="0" id="text-entity-products-0dbca17b-d088-4f62-83bc-3814fd7513c2-attr-6-name" class="er entityLabel">provider</text><rect height="22" width="22.68768310546875" y="134" x="115.03033447265625" class="er attributeBoxEven"/><text style="dominant-baseline: middle; font-size: 10.2px;" transform="translate(120.03033447265625,145)" y="0" x="0" id="text-entity-products-0dbca17b-d088-4f62-83bc-3814fd7513c2-attr-6-key" class="er entityLabel"/><rect height="22" width="54.095550537109375" y="156" x="0" class="er attributeBoxOdd"/><text style="dominant-baseline: middle; font-size: 10.2px;" transform="translate(5,167)" y="0" x="0" id="text-entity-products-0dbca17b-d088-4f62-83bc-3814fd7513c2-attr-7-type" class="er entityLabel">Measure</text><rect height="22" width="60.934783935546875" y="156" x="54.095550537109375" class="er attributeBoxOdd"/><text style="dominant-baseline: middle; font-size: 10.2px;" transform="translate(59.095550537109375,167)" y="0" x="0" id="text-entity-products-0dbca17b-d088-4f62-83bc-3814fd7513c2-attr-7-name" class="er entityLabel">measure</text><rect height="22" width="22.68768310546875" y="156" x="115.03033447265625" class="er attributeBoxOdd"/><text style="dominant-baseline: middle; font-size: 10.2px;" transform="translate(120.03033447265625,167)" y="0" x="0" id="text-entity-products-0dbca17b-d088-4f62-83bc-3814fd7513c2-attr-7-key" class="er entityLabel"/><rect height="22" width="54.095550537109375" y="178" x="0" class="er attributeBoxEven"/><text style="dominant-baseline: middle; font-size: 10.2px;" transform="translate(5,189)" y="0" x="0" id="text-entity-products-0dbca17b-d088-4f62-83bc-3814fd7513c2-attr-8-type" class="er entityLabel">DateTime</text><rect height="22" width="60.934783935546875" y="178" x="54.095550537109375" class="er attributeBoxEven"/><text style="dominant-baseline: middle; font-size: 10.2px;" transform="translate(59.095550537109375,189)" y="0" x="0" id="text-entity-products-0dbca17b-d088-4f62-83bc-3814fd7513c2-attr-8-name" class="er entityLabel">created_at</text><rect height="22" width="22.68768310546875" y="178" x="115.03033447265625" class="er attributeBoxEven"/><text style="dominant-baseline: middle; font-size: 10.2px;" transform="translate(120.03033447265625,189)" y="0" x="0" id="text-entity-products-0dbca17b-d088-4f62-83bc-3814fd7513c2-attr-8-key" class="er entityLabel"/></g><g transform="translate(110.57049560546875,20 )" id="entity-price-777bf3a9-0df5-4b46-96d6-770cb7077421"><rect height="178" width="137.718017578125" y="0" x="0" class="er entityBox"/><text style="dominant-baseline: middle; text-anchor: middle; font-size: 12px;" transform="translate(68.8590087890625,12)" y="0" x="0" id="text-entity-price-777bf3a9-0df5-4b46-96d6-770cb7077421" class="er entityLabel">price</text><rect height="22" width="54.095550537109375" y="24" x="0" class="er attributeBoxOdd"/><text style="dominant-baseline: middle; font-size: 10.2px;" transform="translate(5,35)" y="0" x="0" id="text-entity-price-777bf3a9-0df5-4b46-96d6-770cb7077421-attr-1-type" class="er entityLabel">String</text><rect height="22" width="60.934783935546875" y="24" x="54.095550537109375" class="er attributeBoxOdd"/><text style="dominant-baseline: middle; font-size: 10.2px;" transform="translate(59.095550537109375,35)" y="0" x="0" id="text-entity-price-777bf3a9-0df5-4b46-96d6-770cb7077421-attr-1-name" class="er entityLabel">id</text><rect height="22" width="22.68768310546875" y="24" x="115.03033447265625" class="er attributeBoxOdd"/><text style="dominant-baseline: middle; font-size: 10.2px;" transform="translate(120.03033447265625,35)" y="0" x="0" id="text-entity-price-777bf3a9-0df5-4b46-96d6-770cb7077421-attr-1-key" class="er entityLabel">PK</text><rect height="22" width="54.095550537109375" y="46" x="0" class="er attributeBoxEven"/><text style="dominant-baseline: middle; font-size: 10.2px;" transform="translate(5,57)" y="0" x="0" id="text-entity-price-777bf3a9-0df5-4b46-96d6-770cb7077421-attr-2-type" class="er entityLabel">Decimal</text><rect height="22" width="60.934783935546875" y="46" x="54.095550537109375" class="er attributeBoxEven"/><text style="dominant-baseline: middle; font-size: 10.2px;" transform="translate(59.095550537109375,57)" y="0" x="0" id="text-entity-price-777bf3a9-0df5-4b46-96d6-770cb7077421-attr-2-name" class="er entityLabel">price</text><rect height="22" width="22.68768310546875" y="46" x="115.03033447265625" class="er attributeBoxEven"/><text style="dominant-baseline: middle; font-size: 10.2px;" transform="translate(120.03033447265625,57)" y="0" x="0" id="text-entity-price-777bf3a9-0df5-4b46-96d6-770cb7077421-attr-2-key" class="er entityLabel"/><rect height="22" width="54.095550537109375" y="68" x="0" class="er attributeBoxOdd"/><text style="dominant-baseline: middle; font-size: 10.2px;" transform="translate(5,79)" y="0" x="0" id="text-entity-price-777bf3a9-0df5-4b46-96d6-770cb7077421-attr-3-type" class="er entityLabel">Decimal</text><rect height="22" width="60.934783935546875" y="68" x="54.095550537109375" class="er attributeBoxOdd"/><text style="dominant-baseline: middle; font-size: 10.2px;" transform="translate(59.095550537109375,79)" y="0" x="0" id="text-entity-price-777bf3a9-0df5-4b46-96d6-770cb7077421-attr-3-name" class="er entityLabel">iva</text><rect height="22" width="22.68768310546875" y="68" x="115.03033447265625" class="er attributeBoxOdd"/><text style="dominant-baseline: middle; font-size: 10.2px;" transform="translate(120.03033447265625,79)" y="0" x="0" id="text-entity-price-777bf3a9-0df5-4b46-96d6-770cb7077421-attr-3-key" class="er entityLabel"/><rect height="22" width="54.095550537109375" y="90" x="0" class="er attributeBoxEven"/><text style="dominant-baseline: middle; font-size: 10.2px;" transform="translate(5,101)" y="0" x="0" id="text-entity-price-777bf3a9-0df5-4b46-96d6-770cb7077421-attr-4-type" class="er entityLabel">Decimal</text><rect height="22" width="60.934783935546875" y="90" x="54.095550537109375" class="er attributeBoxEven"/><text style="dominant-baseline: middle; font-size: 10.2px;" transform="translate(59.095550537109375,101)" y="0" x="0" id="text-entity-price-777bf3a9-0df5-4b46-96d6-770cb7077421-attr-4-name" class="er entityLabel">sale_price</text><rect height="22" width="22.68768310546875" y="90" x="115.03033447265625" class="er attributeBoxEven"/><text style="dominant-baseline: middle; font-size: 10.2px;" transform="translate(120.03033447265625,101)" y="0" x="0" id="text-entity-price-777bf3a9-0df5-4b46-96d6-770cb7077421-attr-4-key" class="er entityLabel"/><rect height="22" width="54.095550537109375" y="112" x="0" class="er attributeBoxOdd"/><text style="dominant-baseline: middle; font-size: 10.2px;" transform="translate(5,123)" y="0" x="0" id="text-entity-price-777bf3a9-0df5-4b46-96d6-770cb7077421-attr-5-type" class="er entityLabel">Measure</text><rect height="22" width="60.934783935546875" y="112" x="54.095550537109375" class="er attributeBoxOdd"/><text style="dominant-baseline: middle; font-size: 10.2px;" transform="translate(59.095550537109375,123)" y="0" x="0" id="text-entity-price-777bf3a9-0df5-4b46-96d6-770cb7077421-attr-5-name" class="er entityLabel">measure</text><rect height="22" width="22.68768310546875" y="112" x="115.03033447265625" class="er attributeBoxOdd"/><text style="dominant-baseline: middle; font-size: 10.2px;" transform="translate(120.03033447265625,123)" y="0" x="0" id="text-entity-price-777bf3a9-0df5-4b46-96d6-770cb7077421-attr-5-key" class="er entityLabel"/><rect height="22" width="54.095550537109375" y="134" x="0" class="er attributeBoxEven"/><text style="dominant-baseline: middle; font-size: 10.2px;" transform="translate(5,145)" y="0" x="0" id="text-entity-price-777bf3a9-0df5-4b46-96d6-770cb7077421-attr-6-type" class="er entityLabel">String</text><rect height="22" width="60.934783935546875" y="134" x="54.095550537109375" class="er attributeBoxEven"/><text style="dominant-baseline: middle; font-size: 10.2px;" transform="translate(59.095550537109375,145)" y="0" x="0" id="text-entity-price-777bf3a9-0df5-4b46-96d6-770cb7077421-attr-6-name" class="er entityLabel">provider</text><rect height="22" width="22.68768310546875" y="134" x="115.03033447265625" class="er attributeBoxEven"/><text style="dominant-baseline: middle; font-size: 10.2px;" transform="translate(120.03033447265625,145)" y="0" x="0" id="text-entity-price-777bf3a9-0df5-4b46-96d6-770cb7077421-attr-6-key" class="er entityLabel"/><rect height="22" width="54.095550537109375" y="156" x="0" class="er attributeBoxOdd"/><text style="dominant-baseline: middle; font-size: 10.2px;" transform="translate(5,167)" y="0" x="0" id="text-entity-price-777bf3a9-0df5-4b46-96d6-770cb7077421-attr-7-type" class="er entityLabel">DateTime</text><rect height="22" width="60.934783935546875" y="156" x="54.095550537109375" class="er attributeBoxOdd"/><text style="dominant-baseline: middle; font-size: 10.2px;" transform="translate(59.095550537109375,167)" y="0" x="0" id="text-entity-price-777bf3a9-0df5-4b46-96d6-770cb7077421-attr-7-name" class="er entityLabel">created_at</text><rect height="22" width="22.68768310546875" y="156" x="115.03033447265625" class="er attributeBoxOdd"/><text style="dominant-baseline: middle; font-size: 10.2px;" transform="translate(120.03033447265625,167)" y="0" x="0" id="text-entity-price-777bf3a9-0df5-4b46-96d6-770cb7077421-attr-7-key" class="er entityLabel"/></g><g transform="translate(348.28851318359375,53 )" id="entity-services-dc4a9e4b-8156-4dc6-a54e-98460b10ec60"><rect height="112" width="137.718017578125" y="0" x="0" class="er entityBox"/><text style="dominant-baseline: middle; text-anchor: middle; font-size: 12px;" transform="translate(68.8590087890625,12)" y="0" x="0" id="text-entity-services-dc4a9e4b-8156-4dc6-a54e-98460b10ec60" class="er entityLabel">services</text><rect height="22" width="54.095550537109375" y="24" x="0" class="er attributeBoxOdd"/><text style="dominant-baseline: middle; font-size: 10.2px;" transform="translate(5,35)" y="0" x="0" id="text-entity-services-dc4a9e4b-8156-4dc6-a54e-98460b10ec60-attr-1-type" class="er entityLabel">String</text><rect height="22" width="60.934783935546875" y="24" x="54.095550537109375" class="er attributeBoxOdd"/><text style="dominant-baseline: middle; font-size: 10.2px;" transform="translate(59.095550537109375,35)" y="0" x="0" id="text-entity-services-dc4a9e4b-8156-4dc6-a54e-98460b10ec60-attr-1-name" class="er entityLabel">id</text><rect height="22" width="22.68768310546875" y="24" x="115.03033447265625" class="er attributeBoxOdd"/><text style="dominant-baseline: middle; font-size: 10.2px;" transform="translate(120.03033447265625,35)" y="0" x="0" id="text-entity-services-dc4a9e4b-8156-4dc6-a54e-98460b10ec60-attr-1-key" class="er entityLabel">PK</text><rect height="22" width="54.095550537109375" y="46" x="0" class="er attributeBoxEven"/><text style="dominant-baseline: middle; font-size: 10.2px;" transform="translate(5,57)" y="0" x="0" id="text-entity-services-dc4a9e4b-8156-4dc6-a54e-98460b10ec60-attr-2-type" class="er entityLabel">String</text><rect height="22" width="60.934783935546875" y="46" x="54.095550537109375" class="er attributeBoxEven"/><text style="dominant-baseline: middle; font-size: 10.2px;" transform="translate(59.095550537109375,57)" y="0" x="0" id="text-entity-services-dc4a9e4b-8156-4dc6-a54e-98460b10ec60-attr-2-name" class="er entityLabel">name</text><rect height="22" width="22.68768310546875" y="46" x="115.03033447265625" class="er attributeBoxEven"/><text style="dominant-baseline: middle; font-size: 10.2px;" transform="translate(120.03033447265625,57)" y="0" x="0" id="text-entity-services-dc4a9e4b-8156-4dc6-a54e-98460b10ec60-attr-2-key" class="er entityLabel"/><rect height="22" width="54.095550537109375" y="68" x="0" class="er attributeBoxOdd"/><text style="dominant-baseline: middle; font-size: 10.2px;" transform="translate(5,79)" y="0" x="0" id="text-entity-services-dc4a9e4b-8156-4dc6-a54e-98460b10ec60-attr-3-type" class="er entityLabel">Decimal</text><rect height="22" width="60.934783935546875" y="68" x="54.095550537109375" class="er attributeBoxOdd"/><text style="dominant-baseline: middle; font-size: 10.2px;" transform="translate(59.095550537109375,79)" y="0" x="0" id="text-entity-services-dc4a9e4b-8156-4dc6-a54e-98460b10ec60-attr-3-name" class="er entityLabel">price</text><rect height="22" width="22.68768310546875" y="68" x="115.03033447265625" class="er attributeBoxOdd"/><text style="dominant-baseline: middle; font-size: 10.2px;" transform="translate(120.03033447265625,79)" y="0" x="0" id="text-entity-services-dc4a9e4b-8156-4dc6-a54e-98460b10ec60-attr-3-key" class="er entityLabel"/><rect height="22" width="54.095550537109375" y="90" x="0" class="er attributeBoxEven"/><text style="dominant-baseline: middle; font-size: 10.2px;" transform="translate(5,101)" y="0" x="0" id="text-entity-services-dc4a9e4b-8156-4dc6-a54e-98460b10ec60-attr-4-type" class="er entityLabel">DateTime</text><rect height="22" width="60.934783935546875" y="90" x="54.095550537109375" class="er attributeBoxEven"/><text style="dominant-baseline: middle; font-size: 10.2px;" transform="translate(59.095550537109375,101)" y="0" x="0" id="text-entity-services-dc4a9e4b-8156-4dc6-a54e-98460b10ec60-attr-4-name" class="er entityLabel">created_at</text><rect height="22" width="22.68768310546875" y="90" x="115.03033447265625" class="er attributeBoxEven"/><text style="dominant-baseline: middle; font-size: 10.2px;" transform="translate(120.03033447265625,101)" y="0" x="0" id="text-entity-services-dc4a9e4b-8156-4dc6-a54e-98460b10ec60-attr-4-key" class="er entityLabel"/></g><g transform="translate(245,620 )" id="entity-families-c079a3fb-f93d-485e-8e47-f84f2e5043cf"><rect height="90" width="137.718017578125" y="0" x="0" class="er entityBox"/><text style="dominant-baseline: middle; text-anchor: middle; font-size: 12px;" transform="translate(68.8590087890625,12)" y="0" x="0" id="text-entity-families-c079a3fb-f93d-485e-8e47-f84f2e5043cf" class="er entityLabel">families</text><rect height="22" width="54.095550537109375" y="24" x="0" class="er attributeBoxOdd"/><text style="dominant-baseline: middle; font-size: 10.2px;" transform="translate(5,35)" y="0" x="0" id="text-entity-families-c079a3fb-f93d-485e-8e47-f84f2e5043cf-attr-1-type" class="er entityLabel">String</text><rect height="22" width="60.934783935546875" y="24" x="54.095550537109375" class="er attributeBoxOdd"/><text style="dominant-baseline: middle; font-size: 10.2px;" transform="translate(59.095550537109375,35)" y="0" x="0" id="text-entity-families-c079a3fb-f93d-485e-8e47-f84f2e5043cf-attr-1-name" class="er entityLabel">id</text><rect height="22" width="22.68768310546875" y="24" x="115.03033447265625" class="er attributeBoxOdd"/><text style="dominant-baseline: middle; font-size: 10.2px;" transform="translate(120.03033447265625,35)" y="0" x="0" id="text-entity-families-c079a3fb-f93d-485e-8e47-f84f2e5043cf-attr-1-key" class="er entityLabel">PK</text><rect height="22" width="54.095550537109375" y="46" x="0" class="er attributeBoxEven"/><text style="dominant-baseline: middle; font-size: 10.2px;" transform="translate(5,57)" y="0" x="0" id="text-entity-families-c079a3fb-f93d-485e-8e47-f84f2e5043cf-attr-2-type" class="er entityLabel">String</text><rect height="22" width="60.934783935546875" y="46" x="54.095550537109375" class="er attributeBoxEven"/><text style="dominant-baseline: middle; font-size: 10.2px;" transform="translate(59.095550537109375,57)" y="0" x="0" id="text-entity-families-c079a3fb-f93d-485e-8e47-f84f2e5043cf-attr-2-name" class="er entityLabel">name</text><rect height="22" width="22.68768310546875" y="46" x="115.03033447265625" class="er attributeBoxEven"/><text style="dominant-baseline: middle; font-size: 10.2px;" transform="translate(120.03033447265625,57)" y="0" x="0" id="text-entity-families-c079a3fb-f93d-485e-8e47-f84f2e5043cf-attr-2-key" class="er entityLabel"/><rect height="22" width="54.095550537109375" y="68" x="0" class="er attributeBoxOdd"/><text style="dominant-baseline: middle; font-size: 10.2px;" transform="translate(5,79)" y="0" x="0" id="text-entity-families-c079a3fb-f93d-485e-8e47-f84f2e5043cf-attr-3-type" class="er entityLabel">DateTime</text><rect height="22" width="60.934783935546875" y="68" x="54.095550537109375" class="er attributeBoxOdd"/><text style="dominant-baseline: middle; font-size: 10.2px;" transform="translate(59.095550537109375,79)" y="0" x="0" id="text-entity-families-c079a3fb-f93d-485e-8e47-f84f2e5043cf-attr-3-name" class="er entityLabel">created_at</text><rect height="22" width="22.68768310546875" y="68" x="115.03033447265625" class="er attributeBoxOdd"/><text style="dominant-baseline: middle; font-size: 10.2px;" transform="translate(120.03033447265625,79)" y="0" x="0" id="text-entity-families-c079a3fb-f93d-485e-8e47-f84f2e5043cf-attr-3-key" class="er entityLabel"/></g><g transform="translate(586.0065307617188,64 )" id="entity-providers-32ebc860-bd6d-4c43-bdfe-183af8034fc0"><rect height="90" width="137.718017578125" y="0" x="0" class="er entityBox"/><text style="dominant-baseline: middle; text-anchor: middle; font-size: 12px;" transform="translate(68.8590087890625,12)" y="0" x="0" id="text-entity-providers-32ebc860-bd6d-4c43-bdfe-183af8034fc0" class="er entityLabel">providers</text><rect height="22" width="54.095550537109375" y="24" x="0" class="er attributeBoxOdd"/><text style="dominant-baseline: middle; font-size: 10.2px;" transform="translate(5,35)" y="0" x="0" id="text-entity-providers-32ebc860-bd6d-4c43-bdfe-183af8034fc0-attr-1-type" class="er entityLabel">String</text><rect height="22" width="60.934783935546875" y="24" x="54.095550537109375" class="er attributeBoxOdd"/><text style="dominant-baseline: middle; font-size: 10.2px;" transform="translate(59.095550537109375,35)" y="0" x="0" id="text-entity-providers-32ebc860-bd6d-4c43-bdfe-183af8034fc0-attr-1-name" class="er entityLabel">id</text><rect height="22" width="22.68768310546875" y="24" x="115.03033447265625" class="er attributeBoxOdd"/><text style="dominant-baseline: middle; font-size: 10.2px;" transform="translate(120.03033447265625,35)" y="0" x="0" id="text-entity-providers-32ebc860-bd6d-4c43-bdfe-183af8034fc0-attr-1-key" class="er entityLabel">PK</text><rect height="22" width="54.095550537109375" y="46" x="0" class="er attributeBoxEven"/><text style="dominant-baseline: middle; font-size: 10.2px;" transform="translate(5,57)" y="0" x="0" id="text-entity-providers-32ebc860-bd6d-4c43-bdfe-183af8034fc0-attr-2-type" class="er entityLabel">String</text><rect height="22" width="60.934783935546875" y="46" x="54.095550537109375" class="er attributeBoxEven"/><text style="dominant-baseline: middle; font-size: 10.2px;" transform="translate(59.095550537109375,57)" y="0" x="0" id="text-entity-providers-32ebc860-bd6d-4c43-bdfe-183af8034fc0-attr-2-name" class="er entityLabel">name</text><rect height="22" width="22.68768310546875" y="46" x="115.03033447265625" class="er attributeBoxEven"/><text style="dominant-baseline: middle; font-size: 10.2px;" transform="translate(120.03033447265625,57)" y="0" x="0" id="text-entity-providers-32ebc860-bd6d-4c43-bdfe-183af8034fc0-attr-2-key" class="er entityLabel"/><rect height="22" width="54.095550537109375" y="68" x="0" class="er attributeBoxOdd"/><text style="dominant-baseline: middle; font-size: 10.2px;" transform="translate(5,79)" y="0" x="0" id="text-entity-providers-32ebc860-bd6d-4c43-bdfe-183af8034fc0-attr-3-type" class="er entityLabel">DateTime</text><rect height="22" width="60.934783935546875" y="68" x="54.095550537109375" class="er attributeBoxOdd"/><text style="dominant-baseline: middle; font-size: 10.2px;" transform="translate(59.095550537109375,79)" y="0" x="0" id="text-entity-providers-32ebc860-bd6d-4c43-bdfe-183af8034fc0-attr-3-name" class="er entityLabel">created_at</text><rect height="22" width="22.68768310546875" y="68" x="115.03033447265625" class="er attributeBoxOdd"/><text style="dominant-baseline: middle; font-size: 10.2px;" transform="translate(120.03033447265625,79)" y="0" x="0" id="text-entity-providers-32ebc860-bd6d-4c43-bdfe-183af8034fc0-attr-3-key" class="er entityLabel"/></g><rect height="14" width="79.9140625" y="538.12890625" x="116.62736511230469" class="er relationshipLabelBox"/><text style="text-anchor: middle; dominant-baseline: middle; font-size: 12px;" y="545.12890625" x="156.5843963623047" id="rel1" class="er relationshipLabel">enum:measure</text><rect height="14" width="36.525390625" y="551.075927734375" x="293.5939025878906" class="er relationshipLabelBox"/><text style="text-anchor: middle; dominant-baseline: middle; font-size: 12px;" y="558.075927734375" x="311.8565979003906" id="rel2" class="er relationshipLabel">Family</text><rect height="14" width="41.97265625" y="238.27110290527344" x="236.93814086914062" class="er relationshipLabelBox"/><text style="text-anchor: middle; dominant-baseline: middle; font-size: 12px;" y="245.27110290527344" x="257.9244689941406" id="rel3" class="er relationshipLabel">product</text><rect height="14" width="79.9140625" y="362.81268310546875" x="-19.85589599609375" class="er relationshipLabelBox"/><text style="text-anchor: middle; dominant-baseline: middle; font-size: 12px;" y="369.81268310546875" x="20.10113525390625" id="rel4" class="er relationshipLabel">enum:measure</text></svg>