<svg aria-roledescription="er" viewBox="-39.86226272583008 0 783.5867919921875 642" style="max-width: 783.587px; background-color: white;" xmlns:xlink="http://www.w3.org/1999/xlink" xmlns="http://www.w3.org/2000/svg" width="100%" id="mermaid-0"><style>#mermaid-0{font-family:"trebuchet ms",verdana,arial,sans-serif;font-size:16px;fill:#000000;}#mermaid-0 .error-icon{fill:#552222;}#mermaid-0 .error-text{fill:#552222;stroke:#552222;}#mermaid-0 .edge-thickness-normal{stroke-width:2px;}#mermaid-0 .edge-thickness-thick{stroke-width:3.5px;}#mermaid-0 .edge-pattern-solid{stroke-dasharray:0;}#mermaid-0 .edge-pattern-dashed{stroke-dasharray:3;}#mermaid-0 .edge-pattern-dotted{stroke-dasharray:2;}#mermaid-0 .marker{fill:#000000;stroke:#000000;}#mermaid-0 .marker.cross{stroke:#000000;}#mermaid-0 svg{font-family:"trebuchet ms",verdana,arial,sans-serif;font-size:16px;}#mermaid-0 .entityBox{fill:#cde498;stroke:#13540c;}#mermaid-0 .attributeBoxOdd{fill:#ffffff;stroke:#13540c;}#mermaid-0 .attributeBoxEven{fill:#f2f2f2;stroke:#13540c;}#mermaid-0 .relationshipLabelBox{fill:hsl(78.1578947368, 58.4615384615%, 84.5098039216%);opacity:0.7;background-color:hsl(78.1578947368, 58.4615384615%, 84.5098039216%);}#mermaid-0 .relationshipLabelBox rect{opacity:0.5;}#mermaid-0 .relationshipLine{stroke:#000000;}#mermaid-0 .entityTitleText{text-anchor:middle;font-size:18px;fill:#000000;}#mermaid-0 :root{--mermaid-font-family:"trebuchet ms",verdana,arial,sans-serif;}</style><g/><defs><marker orient="auto" markerHeight="18" markerWidth="18" refY="9" refX="0" id="ONLY_ONE_START"><path d="M9,0 L9,18 M15,0 L15,18" fill="none" stroke="gray"/></marker></defs><defs><marker orient="auto" markerHeight="18" markerWidth="18" refY="9" refX="18" id="ONLY_ONE_END"><path d="M3,0 L3,18 M9,0 L9,18" fill="none" stroke="gray"/></marker></defs><defs><marker orient="auto" markerHeight="18" markerWidth="30" refY="9" refX="0" id="ZERO_OR_ONE_START"><circle r="6" cy="9" cx="21" fill="white" stroke="gray"/><path d="M9,0 L9,18" fill="none" stroke="gray"/></marker></defs><defs><marker orient="auto" markerHeight="18" markerWidth="30" refY="9" refX="30" id="ZERO_OR_ONE_END"><circle r="6" cy="9" cx="9" fill="white" stroke="gray"/><path d="M21,0 L21,18" fill="none" stroke="gray"/></marker></defs><defs><marker orient="auto" markerHeight="36" markerWidth="45" refY="18" refX="18" id="ONE_OR_MORE_START"><path d="M0,18 Q 18,0 36,18 Q 18,36 0,18 M42,9 L42,27" fill="none" stroke="gray"/></marker></defs><defs><marker orient="auto" markerHeight="36" markerWidth="45" refY="18" refX="27" id="ONE_OR_MORE_END"><path d="M3,9 L3,27 M9,18 Q27,0 45,18 Q27,36 9,18" fill="none" stroke="gray"/></marker></defs><defs><marker orient="auto" markerHeight="36" markerWidth="57" refY="18" refX="18" id="ZERO_OR_MORE_START"><circle r="6" cy="18" cx="48" fill="white" stroke="gray"/><path d="M0,18 Q18,0 36,18 Q18,36 0,18" fill="none" stroke="gray"/></marker></defs><defs><marker orient="auto" markerHeight="36" markerWidth="57" refY="18" refX="39" id="ZERO_OR_MORE_END"><circle r="6" cy="18" cx="9" fill="white" stroke="gray"/><path d="M21,18 Q39,0 57,18 Q39,36 21,18" fill="none" stroke="gray"/></marker></defs><path style="stroke: gray; fill: none;" marker-start="url(#ZERO_OR_ONE_START)" marker-end="url(#ONLY_ONE_END)" d="M197.17540454864502,410L190.05108785629272,418.3333333333333C182.92677116394043,426.6666666666667,168.67813777923584,443.3333333333333,154.91628143322544,460C141.154425087215,476.6666666666667,127.87934577989877,493.3333333333333,121.24180612624066,501.6666666666667L114.60426647258254,510" class="er relationshipLine"/><path style="stroke: gray; fill: none;" marker-start="url(#ZERO_OR_MORE_START)" marker-end="url(#ZERO_OR_ONE_END)" d="M294.3277587890625,410L297.5829671223958,418.3333333333333C300.8381754557292,426.6666666666667,307.3485921223958,443.3333333333333,310.6038004557292,461.8333333333333C313.8590087890625,480.3333333333333,313.8590087890625,500.6666666666667,313.8590087890625,510.8333333333333L313.8590087890625,521" class="er relationshipLine"/><path style="stroke: gray; fill: none;" marker-start="url(#ZERO_OR_MORE_START)" marker-end="url(#ONLY_ONE_END)" d="M227.77802400507477,154L233.7915214690727,162.33333333333334C239.80501893307067,170.66666666666666,251.83201386106657,187.33333333333334,257.84551132506454,204C263.8590087890625,220.66666666666666,263.8590087890625,237.33333333333334,263.8590087890625,245.66666666666666L263.8590087890625,254" class="er relationshipLine"/><path style="stroke: gray; fill: none;" marker-start="url(#ZERO_OR_ONE_START)" marker-end="url(#ONLY_ONE_END)" d="M110.57049560546875,137.53333169990503L95.4754130045573,148.61110974992087C80.38033040364583,159.68888779993668,50.190165201822914,181.84444389996835,35.09508260091146,214.25555528331748C20,246.66666666666666,20,289.3333333333333,20,332C20,374.6666666666667,20,417.3333333333333,23.930817610062892,447C27.861635220125788,476.6666666666667,35.723270440251575,493.3333333333333,39.65408805031446,501.6666666666667L43.58490566037736,510" class="er relationshipLine"/><g transform="translate(20,510 )" id="entity-Measure-4ffa2881-220e-4920-8396-adf9f44d759f"><rect height="112" width="100" y="0" x="0" class="er entityBox"/><text style="dominant-baseline: middle; text-anchor: middle; font-size: 12px;" transform="translate(50,12)" y="0" x="0" id="text-entity-Measure-4ffa2881-220e-4920-8396-adf9f44d759f" class="er entityLabel">Measure</text><rect height="22" width="50" y="24" x="0" class="er attributeBoxOdd"/><text style="dominant-baseline: middle; font-size: 10.2px;" transform="translate(5,35)" y="0" x="0" id="text-entity-Measure-4ffa2881-220e-4920-8396-adf9f44d759f-attr-1-type" class="er entityLabel">KG</text><rect height="22" width="50" y="24" x="50" class="er attributeBoxOdd"/><text style="dominant-baseline: middle; font-size: 10.2px;" transform="translate(55,35)" y="0" x="0" id="text-entity-Measure-4ffa2881-220e-4920-8396-adf9f44d759f-attr-1-name" class="er entityLabel">KG</text><rect height="22" width="50" y="46" x="0" class="er attributeBoxEven"/><text style="dominant-baseline: middle; font-size: 10.2px;" transform="translate(5,57)" y="0" x="0" id="text-entity-Measure-4ffa2881-220e-4920-8396-adf9f44d759f-attr-2-type" class="er entityLabel">M2</text><rect height="22" width="50" y="46" x="50" class="er attributeBoxEven"/><text style="dominant-baseline: middle; font-size: 10.2px;" transform="translate(55,57)" y="0" x="0" id="text-entity-Measure-4ffa2881-220e-4920-8396-adf9f44d759f-attr-2-name" class="er entityLabel">M2</text><rect height="22" width="50" y="68" x="0" class="er attributeBoxOdd"/><text style="dominant-baseline: middle; font-size: 10.2px;" transform="translate(5,79)" y="0" x="0" id="text-entity-Measure-4ffa2881-220e-4920-8396-adf9f44d759f-attr-3-type" class="er entityLabel">M</text><rect height="22" width="50" y="68" x="50" class="er attributeBoxOdd"/><text style="dominant-baseline: middle; font-size: 10.2px;" transform="translate(55,79)" y="0" x="0" id="text-entity-Measure-4ffa2881-220e-4920-8396-adf9f44d759f-attr-3-name" class="er entityLabel">M</text><rect height="22" width="50" y="90" x="0" class="er attributeBoxEven"/><text style="dominant-baseline: middle; font-size: 10.2px;" transform="translate(5,101)" y="0" x="0" id="text-entity-Measure-4ffa2881-220e-4920-8396-adf9f44d759f-attr-4-type" class="er entityLabel">UN</text><rect height="22" width="50" y="90" x="50" class="er attributeBoxEven"/><text style="dominant-baseline: middle; font-size: 10.2px;" transform="translate(55,101)" y="0" x="0" id="text-entity-Measure-4ffa2881-220e-4920-8396-adf9f44d759f-attr-4-name" class="er entityLabel">UN</text></g><g transform="translate(195,254 )" id="entity-products-3ca20c50-2904-4274-990c-f0c77d6f58d2"><rect height="156" width="137.718017578125" y="0" x="0" class="er entityBox"/><text style="dominant-baseline: middle; text-anchor: middle; font-size: 12px;" transform="translate(68.8590087890625,12)" y="0" x="0" id="text-entity-products-3ca20c50-2904-4274-990c-f0c77d6f58d2" class="er entityLabel">products</text><rect height="22" width="54.095550537109375" y="24" x="0" class="er attributeBoxOdd"/><text style="dominant-baseline: middle; font-size: 10.2px;" transform="translate(5,35)" y="0" x="0" id="text-entity-products-3ca20c50-2904-4274-990c-f0c77d6f58d2-attr-1-type" class="er entityLabel">String</text><rect height="22" width="60.934783935546875" y="24" x="54.095550537109375" class="er attributeBoxOdd"/><text style="dominant-baseline: middle; font-size: 10.2px;" transform="translate(59.095550537109375,35)" y="0" x="0" id="text-entity-products-3ca20c50-2904-4274-990c-f0c77d6f58d2-attr-1-name" class="er entityLabel">id</text><rect height="22" width="22.68768310546875" y="24" x="115.03033447265625" class="er attributeBoxOdd"/><text style="dominant-baseline: middle; font-size: 10.2px;" transform="translate(120.03033447265625,35)" y="0" x="0" id="text-entity-products-3ca20c50-2904-4274-990c-f0c77d6f58d2-attr-1-key" class="er entityLabel">PK</text><rect height="22" width="54.095550537109375" y="46" x="0" class="er attributeBoxEven"/><text style="dominant-baseline: middle; font-size: 10.2px;" transform="translate(5,57)" y="0" x="0" id="text-entity-products-3ca20c50-2904-4274-990c-f0c77d6f58d2-attr-2-type" class="er entityLabel">String</text><rect height="22" width="60.934783935546875" y="46" x="54.095550537109375" class="er attributeBoxEven"/><text style="dominant-baseline: middle; font-size: 10.2px;" transform="translate(59.095550537109375,57)" y="0" x="0" id="text-entity-products-3ca20c50-2904-4274-990c-f0c77d6f58d2-attr-2-name" class="er entityLabel">name</text><rect height="22" width="22.68768310546875" y="46" x="115.03033447265625" class="er attributeBoxEven"/><text style="dominant-baseline: middle; font-size: 10.2px;" transform="translate(120.03033447265625,57)" y="0" x="0" id="text-entity-products-3ca20c50-2904-4274-990c-f0c77d6f58d2-attr-2-key" class="er entityLabel"/><rect height="22" width="54.095550537109375" y="68" x="0" class="er attributeBoxOdd"/><text style="dominant-baseline: middle; font-size: 10.2px;" transform="translate(5,79)" y="0" x="0" id="text-entity-products-3ca20c50-2904-4274-990c-f0c77d6f58d2-attr-3-type" class="er entityLabel">Decimal</text><rect height="22" width="60.934783935546875" y="68" x="54.095550537109375" class="er attributeBoxOdd"/><text style="dominant-baseline: middle; font-size: 10.2px;" transform="translate(59.095550537109375,79)" y="0" x="0" id="text-entity-products-3ca20c50-2904-4274-990c-f0c77d6f58d2-attr-3-name" class="er entityLabel">price</text><rect height="22" width="22.68768310546875" y="68" x="115.03033447265625" class="er attributeBoxOdd"/><text style="dominant-baseline: middle; font-size: 10.2px;" transform="translate(120.03033447265625,79)" y="0" x="0" id="text-entity-products-3ca20c50-2904-4274-990c-f0c77d6f58d2-attr-3-key" class="er entityLabel"/><rect height="22" width="54.095550537109375" y="90" x="0" class="er attributeBoxEven"/><text style="dominant-baseline: middle; font-size: 10.2px;" transform="translate(5,101)" y="0" x="0" id="text-entity-products-3ca20c50-2904-4274-990c-f0c77d6f58d2-attr-4-type" class="er entityLabel">String</text><rect height="22" width="60.934783935546875" y="90" x="54.095550537109375" class="er attributeBoxEven"/><text style="dominant-baseline: middle; font-size: 10.2px;" transform="translate(59.095550537109375,101)" y="0" x="0" id="text-entity-products-3ca20c50-2904-4274-990c-f0c77d6f58d2-attr-4-name" class="er entityLabel">provider</text><rect height="22" width="22.68768310546875" y="90" x="115.03033447265625" class="er attributeBoxEven"/><text style="dominant-baseline: middle; font-size: 10.2px;" transform="translate(120.03033447265625,101)" y="0" x="0" id="text-entity-products-3ca20c50-2904-4274-990c-f0c77d6f58d2-attr-4-key" class="er entityLabel"/><rect height="22" width="54.095550537109375" y="112" x="0" class="er attributeBoxOdd"/><text style="dominant-baseline: middle; font-size: 10.2px;" transform="translate(5,123)" y="0" x="0" id="text-entity-products-3ca20c50-2904-4274-990c-f0c77d6f58d2-attr-5-type" class="er entityLabel">Measure</text><rect height="22" width="60.934783935546875" y="112" x="54.095550537109375" class="er attributeBoxOdd"/><text style="dominant-baseline: middle; font-size: 10.2px;" transform="translate(59.095550537109375,123)" y="0" x="0" id="text-entity-products-3ca20c50-2904-4274-990c-f0c77d6f58d2-attr-5-name" class="er entityLabel">measure</text><rect height="22" width="22.68768310546875" y="112" x="115.03033447265625" class="er attributeBoxOdd"/><text style="dominant-baseline: middle; font-size: 10.2px;" transform="translate(120.03033447265625,123)" y="0" x="0" id="text-entity-products-3ca20c50-2904-4274-990c-f0c77d6f58d2-attr-5-key" class="er entityLabel"/><rect height="22" width="54.095550537109375" y="134" x="0" class="er attributeBoxEven"/><text style="dominant-baseline: middle; font-size: 10.2px;" transform="translate(5,145)" y="0" x="0" id="text-entity-products-3ca20c50-2904-4274-990c-f0c77d6f58d2-attr-6-type" class="er entityLabel">DateTime</text><rect height="22" width="60.934783935546875" y="134" x="54.095550537109375" class="er attributeBoxEven"/><text style="dominant-baseline: middle; font-size: 10.2px;" transform="translate(59.095550537109375,145)" y="0" x="0" id="text-entity-products-3ca20c50-2904-4274-990c-f0c77d6f58d2-attr-6-name" class="er entityLabel">created_at</text><rect height="22" width="22.68768310546875" y="134" x="115.03033447265625" class="er attributeBoxEven"/><text style="dominant-baseline: middle; font-size: 10.2px;" transform="translate(120.03033447265625,145)" y="0" x="0" id="text-entity-products-3ca20c50-2904-4274-990c-f0c77d6f58d2-attr-6-key" class="er entityLabel"/></g><g transform="translate(110.57049560546875,20 )" id="entity-price-c34f8de8-f8f4-4bad-b1c7-ac5b6a40ca2c"><rect height="134" width="137.718017578125" y="0" x="0" class="er entityBox"/><text style="dominant-baseline: middle; text-anchor: middle; font-size: 12px;" transform="translate(68.8590087890625,12)" y="0" x="0" id="text-entity-price-c34f8de8-f8f4-4bad-b1c7-ac5b6a40ca2c" class="er entityLabel">price</text><rect height="22" width="54.095550537109375" y="24" x="0" class="er attributeBoxOdd"/><text style="dominant-baseline: middle; font-size: 10.2px;" transform="translate(5,35)" y="0" x="0" id="text-entity-price-c34f8de8-f8f4-4bad-b1c7-ac5b6a40ca2c-attr-1-type" class="er entityLabel">String</text><rect height="22" width="60.934783935546875" y="24" x="54.095550537109375" class="er attributeBoxOdd"/><text style="dominant-baseline: middle; font-size: 10.2px;" transform="translate(59.095550537109375,35)" y="0" x="0" id="text-entity-price-c34f8de8-f8f4-4bad-b1c7-ac5b6a40ca2c-attr-1-name" class="er entityLabel">id</text><rect height="22" width="22.68768310546875" y="24" x="115.03033447265625" class="er attributeBoxOdd"/><text style="dominant-baseline: middle; font-size: 10.2px;" transform="translate(120.03033447265625,35)" y="0" x="0" id="text-entity-price-c34f8de8-f8f4-4bad-b1c7-ac5b6a40ca2c-attr-1-key" class="er entityLabel">PK</text><rect height="22" width="54.095550537109375" y="46" x="0" class="er attributeBoxEven"/><text style="dominant-baseline: middle; font-size: 10.2px;" transform="translate(5,57)" y="0" x="0" id="text-entity-price-c34f8de8-f8f4-4bad-b1c7-ac5b6a40ca2c-attr-2-type" class="er entityLabel">Decimal</text><rect height="22" width="60.934783935546875" y="46" x="54.095550537109375" class="er attributeBoxEven"/><text style="dominant-baseline: middle; font-size: 10.2px;" transform="translate(59.095550537109375,57)" y="0" x="0" id="text-entity-price-c34f8de8-f8f4-4bad-b1c7-ac5b6a40ca2c-attr-2-name" class="er entityLabel">price</text><rect height="22" width="22.68768310546875" y="46" x="115.03033447265625" class="er attributeBoxEven"/><text style="dominant-baseline: middle; font-size: 10.2px;" transform="translate(120.03033447265625,57)" y="0" x="0" id="text-entity-price-c34f8de8-f8f4-4bad-b1c7-ac5b6a40ca2c-attr-2-key" class="er entityLabel"/><rect height="22" width="54.095550537109375" y="68" x="0" class="er attributeBoxOdd"/><text style="dominant-baseline: middle; font-size: 10.2px;" transform="translate(5,79)" y="0" x="0" id="text-entity-price-c34f8de8-f8f4-4bad-b1c7-ac5b6a40ca2c-attr-3-type" class="er entityLabel">Measure</text><rect height="22" width="60.934783935546875" y="68" x="54.095550537109375" class="er attributeBoxOdd"/><text style="dominant-baseline: middle; font-size: 10.2px;" transform="translate(59.095550537109375,79)" y="0" x="0" id="text-entity-price-c34f8de8-f8f4-4bad-b1c7-ac5b6a40ca2c-attr-3-name" class="er entityLabel">measure</text><rect height="22" width="22.68768310546875" y="68" x="115.03033447265625" class="er attributeBoxOdd"/><text style="dominant-baseline: middle; font-size: 10.2px;" transform="translate(120.03033447265625,79)" y="0" x="0" id="text-entity-price-c34f8de8-f8f4-4bad-b1c7-ac5b6a40ca2c-attr-3-key" class="er entityLabel"/><rect height="22" width="54.095550537109375" y="90" x="0" class="er attributeBoxEven"/><text style="dominant-baseline: middle; font-size: 10.2px;" transform="translate(5,101)" y="0" x="0" id="text-entity-price-c34f8de8-f8f4-4bad-b1c7-ac5b6a40ca2c-attr-4-type" class="er entityLabel">String</text><rect height="22" width="60.934783935546875" y="90" x="54.095550537109375" class="er attributeBoxEven"/><text style="dominant-baseline: middle; font-size: 10.2px;" transform="translate(59.095550537109375,101)" y="0" x="0" id="text-entity-price-c34f8de8-f8f4-4bad-b1c7-ac5b6a40ca2c-attr-4-name" class="er entityLabel">provider</text><rect height="22" width="22.68768310546875" y="90" x="115.03033447265625" class="er attributeBoxEven"/><text style="dominant-baseline: middle; font-size: 10.2px;" transform="translate(120.03033447265625,101)" y="0" x="0" id="text-entity-price-c34f8de8-f8f4-4bad-b1c7-ac5b6a40ca2c-attr-4-key" class="er entityLabel"/><rect height="22" width="54.095550537109375" y="112" x="0" class="er attributeBoxOdd"/><text style="dominant-baseline: middle; font-size: 10.2px;" transform="translate(5,123)" y="0" x="0" id="text-entity-price-c34f8de8-f8f4-4bad-b1c7-ac5b6a40ca2c-attr-5-type" class="er entityLabel">DateTime</text><rect height="22" width="60.934783935546875" y="112" x="54.095550537109375" class="er attributeBoxOdd"/><text style="dominant-baseline: middle; font-size: 10.2px;" transform="translate(59.095550537109375,123)" y="0" x="0" id="text-entity-price-c34f8de8-f8f4-4bad-b1c7-ac5b6a40ca2c-attr-5-name" class="er entityLabel">created_at</text><rect height="22" width="22.68768310546875" y="112" x="115.03033447265625" class="er attributeBoxOdd"/><text style="dominant-baseline: middle; font-size: 10.2px;" transform="translate(120.03033447265625,123)" y="0" x="0" id="text-entity-price-c34f8de8-f8f4-4bad-b1c7-ac5b6a40ca2c-attr-5-key" class="er entityLabel"/></g><g transform="translate(348.28851318359375,31 )" id="entity-services-f3ac3df7-41d3-4aa1-91f2-0e2763df8df2"><rect height="112" width="137.718017578125" y="0" x="0" class="er entityBox"/><text style="dominant-baseline: middle; text-anchor: middle; font-size: 12px;" transform="translate(68.8590087890625,12)" y="0" x="0" id="text-entity-services-f3ac3df7-41d3-4aa1-91f2-0e2763df8df2" class="er entityLabel">services</text><rect height="22" width="54.095550537109375" y="24" x="0" class="er attributeBoxOdd"/><text style="dominant-baseline: middle; font-size: 10.2px;" transform="translate(5,35)" y="0" x="0" id="text-entity-services-f3ac3df7-41d3-4aa1-91f2-0e2763df8df2-attr-1-type" class="er entityLabel">String</text><rect height="22" width="60.934783935546875" y="24" x="54.095550537109375" class="er attributeBoxOdd"/><text style="dominant-baseline: middle; font-size: 10.2px;" transform="translate(59.095550537109375,35)" y="0" x="0" id="text-entity-services-f3ac3df7-41d3-4aa1-91f2-0e2763df8df2-attr-1-name" class="er entityLabel">id</text><rect height="22" width="22.68768310546875" y="24" x="115.03033447265625" class="er attributeBoxOdd"/><text style="dominant-baseline: middle; font-size: 10.2px;" transform="translate(120.03033447265625,35)" y="0" x="0" id="text-entity-services-f3ac3df7-41d3-4aa1-91f2-0e2763df8df2-attr-1-key" class="er entityLabel">PK</text><rect height="22" width="54.095550537109375" y="46" x="0" class="er attributeBoxEven"/><text style="dominant-baseline: middle; font-size: 10.2px;" transform="translate(5,57)" y="0" x="0" id="text-entity-services-f3ac3df7-41d3-4aa1-91f2-0e2763df8df2-attr-2-type" class="er entityLabel">String</text><rect height="22" width="60.934783935546875" y="46" x="54.095550537109375" class="er attributeBoxEven"/><text style="dominant-baseline: middle; font-size: 10.2px;" transform="translate(59.095550537109375,57)" y="0" x="0" id="text-entity-services-f3ac3df7-41d3-4aa1-91f2-0e2763df8df2-attr-2-name" class="er entityLabel">name</text><rect height="22" width="22.68768310546875" y="46" x="115.03033447265625" class="er attributeBoxEven"/><text style="dominant-baseline: middle; font-size: 10.2px;" transform="translate(120.03033447265625,57)" y="0" x="0" id="text-entity-services-f3ac3df7-41d3-4aa1-91f2-0e2763df8df2-attr-2-key" class="er entityLabel"/><rect height="22" width="54.095550537109375" y="68" x="0" class="er attributeBoxOdd"/><text style="dominant-baseline: middle; font-size: 10.2px;" transform="translate(5,79)" y="0" x="0" id="text-entity-services-f3ac3df7-41d3-4aa1-91f2-0e2763df8df2-attr-3-type" class="er entityLabel">Decimal</text><rect height="22" width="60.934783935546875" y="68" x="54.095550537109375" class="er attributeBoxOdd"/><text style="dominant-baseline: middle; font-size: 10.2px;" transform="translate(59.095550537109375,79)" y="0" x="0" id="text-entity-services-f3ac3df7-41d3-4aa1-91f2-0e2763df8df2-attr-3-name" class="er entityLabel">price</text><rect height="22" width="22.68768310546875" y="68" x="115.03033447265625" class="er attributeBoxOdd"/><text style="dominant-baseline: middle; font-size: 10.2px;" transform="translate(120.03033447265625,79)" y="0" x="0" id="text-entity-services-f3ac3df7-41d3-4aa1-91f2-0e2763df8df2-attr-3-key" class="er entityLabel"/><rect height="22" width="54.095550537109375" y="90" x="0" class="er attributeBoxEven"/><text style="dominant-baseline: middle; font-size: 10.2px;" transform="translate(5,101)" y="0" x="0" id="text-entity-services-f3ac3df7-41d3-4aa1-91f2-0e2763df8df2-attr-4-type" class="er entityLabel">DateTime</text><rect height="22" width="60.934783935546875" y="90" x="54.095550537109375" class="er attributeBoxEven"/><text style="dominant-baseline: middle; font-size: 10.2px;" transform="translate(59.095550537109375,101)" y="0" x="0" id="text-entity-services-f3ac3df7-41d3-4aa1-91f2-0e2763df8df2-attr-4-name" class="er entityLabel">created_at</text><rect height="22" width="22.68768310546875" y="90" x="115.03033447265625" class="er attributeBoxEven"/><text style="dominant-baseline: middle; font-size: 10.2px;" transform="translate(120.03033447265625,101)" y="0" x="0" id="text-entity-services-f3ac3df7-41d3-4aa1-91f2-0e2763df8df2-attr-4-key" class="er entityLabel"/></g><g transform="translate(245,521 )" id="entity-families-4c1419a9-320d-4bd6-9a22-acdf11184712"><rect height="90" width="137.718017578125" y="0" x="0" class="er entityBox"/><text style="dominant-baseline: middle; text-anchor: middle; font-size: 12px;" transform="translate(68.8590087890625,12)" y="0" x="0" id="text-entity-families-4c1419a9-320d-4bd6-9a22-acdf11184712" class="er entityLabel">families</text><rect height="22" width="54.095550537109375" y="24" x="0" class="er attributeBoxOdd"/><text style="dominant-baseline: middle; font-size: 10.2px;" transform="translate(5,35)" y="0" x="0" id="text-entity-families-4c1419a9-320d-4bd6-9a22-acdf11184712-attr-1-type" class="er entityLabel">String</text><rect height="22" width="60.934783935546875" y="24" x="54.095550537109375" class="er attributeBoxOdd"/><text style="dominant-baseline: middle; font-size: 10.2px;" transform="translate(59.095550537109375,35)" y="0" x="0" id="text-entity-families-4c1419a9-320d-4bd6-9a22-acdf11184712-attr-1-name" class="er entityLabel">id</text><rect height="22" width="22.68768310546875" y="24" x="115.03033447265625" class="er attributeBoxOdd"/><text style="dominant-baseline: middle; font-size: 10.2px;" transform="translate(120.03033447265625,35)" y="0" x="0" id="text-entity-families-4c1419a9-320d-4bd6-9a22-acdf11184712-attr-1-key" class="er entityLabel">PK</text><rect height="22" width="54.095550537109375" y="46" x="0" class="er attributeBoxEven"/><text style="dominant-baseline: middle; font-size: 10.2px;" transform="translate(5,57)" y="0" x="0" id="text-entity-families-4c1419a9-320d-4bd6-9a22-acdf11184712-attr-2-type" class="er entityLabel">String</text><rect height="22" width="60.934783935546875" y="46" x="54.095550537109375" class="er attributeBoxEven"/><text style="dominant-baseline: middle; font-size: 10.2px;" transform="translate(59.095550537109375,57)" y="0" x="0" id="text-entity-families-4c1419a9-320d-4bd6-9a22-acdf11184712-attr-2-name" class="er entityLabel">name</text><rect height="22" width="22.68768310546875" y="46" x="115.03033447265625" class="er attributeBoxEven"/><text style="dominant-baseline: middle; font-size: 10.2px;" transform="translate(120.03033447265625,57)" y="0" x="0" id="text-entity-families-4c1419a9-320d-4bd6-9a22-acdf11184712-attr-2-key" class="er entityLabel"/><rect height="22" width="54.095550537109375" y="68" x="0" class="er attributeBoxOdd"/><text style="dominant-baseline: middle; font-size: 10.2px;" transform="translate(5,79)" y="0" x="0" id="text-entity-families-4c1419a9-320d-4bd6-9a22-acdf11184712-attr-3-type" class="er entityLabel">DateTime</text><rect height="22" width="60.934783935546875" y="68" x="54.095550537109375" class="er attributeBoxOdd"/><text style="dominant-baseline: middle; font-size: 10.2px;" transform="translate(59.095550537109375,79)" y="0" x="0" id="text-entity-families-4c1419a9-320d-4bd6-9a22-acdf11184712-attr-3-name" class="er entityLabel">created_at</text><rect height="22" width="22.68768310546875" y="68" x="115.03033447265625" class="er attributeBoxOdd"/><text style="dominant-baseline: middle; font-size: 10.2px;" transform="translate(120.03033447265625,79)" y="0" x="0" id="text-entity-families-4c1419a9-320d-4bd6-9a22-acdf11184712-attr-3-key" class="er entityLabel"/></g><g transform="translate(586.0065307617188,42 )" id="entity-providers-6815346d-8deb-438a-974f-ab5cb2ab6828"><rect height="90" width="137.718017578125" y="0" x="0" class="er entityBox"/><text style="dominant-baseline: middle; text-anchor: middle; font-size: 12px;" transform="translate(68.8590087890625,12)" y="0" x="0" id="text-entity-providers-6815346d-8deb-438a-974f-ab5cb2ab6828" class="er entityLabel">providers</text><rect height="22" width="54.095550537109375" y="24" x="0" class="er attributeBoxOdd"/><text style="dominant-baseline: middle; font-size: 10.2px;" transform="translate(5,35)" y="0" x="0" id="text-entity-providers-6815346d-8deb-438a-974f-ab5cb2ab6828-attr-1-type" class="er entityLabel">String</text><rect height="22" width="60.934783935546875" y="24" x="54.095550537109375" class="er attributeBoxOdd"/><text style="dominant-baseline: middle; font-size: 10.2px;" transform="translate(59.095550537109375,35)" y="0" x="0" id="text-entity-providers-6815346d-8deb-438a-974f-ab5cb2ab6828-attr-1-name" class="er entityLabel">id</text><rect height="22" width="22.68768310546875" y="24" x="115.03033447265625" class="er attributeBoxOdd"/><text style="dominant-baseline: middle; font-size: 10.2px;" transform="translate(120.03033447265625,35)" y="0" x="0" id="text-entity-providers-6815346d-8deb-438a-974f-ab5cb2ab6828-attr-1-key" class="er entityLabel">PK</text><rect height="22" width="54.095550537109375" y="46" x="0" class="er attributeBoxEven"/><text style="dominant-baseline: middle; font-size: 10.2px;" transform="translate(5,57)" y="0" x="0" id="text-entity-providers-6815346d-8deb-438a-974f-ab5cb2ab6828-attr-2-type" class="er entityLabel">String</text><rect height="22" width="60.934783935546875" y="46" x="54.095550537109375" class="er attributeBoxEven"/><text style="dominant-baseline: middle; font-size: 10.2px;" transform="translate(59.095550537109375,57)" y="0" x="0" id="text-entity-providers-6815346d-8deb-438a-974f-ab5cb2ab6828-attr-2-name" class="er entityLabel">name</text><rect height="22" width="22.68768310546875" y="46" x="115.03033447265625" class="er attributeBoxEven"/><text style="dominant-baseline: middle; font-size: 10.2px;" transform="translate(120.03033447265625,57)" y="0" x="0" id="text-entity-providers-6815346d-8deb-438a-974f-ab5cb2ab6828-attr-2-key" class="er entityLabel"/><rect height="22" width="54.095550537109375" y="68" x="0" class="er attributeBoxOdd"/><text style="dominant-baseline: middle; font-size: 10.2px;" transform="translate(5,79)" y="0" x="0" id="text-entity-providers-6815346d-8deb-438a-974f-ab5cb2ab6828-attr-3-type" class="er entityLabel">DateTime</text><rect height="22" width="60.934783935546875" y="68" x="54.095550537109375" class="er attributeBoxOdd"/><text style="dominant-baseline: middle; font-size: 10.2px;" transform="translate(59.095550537109375,79)" y="0" x="0" id="text-entity-providers-6815346d-8deb-438a-974f-ab5cb2ab6828-attr-3-name" class="er entityLabel">created_at</text><rect height="22" width="22.68768310546875" y="68" x="115.03033447265625" class="er attributeBoxOdd"/><text style="dominant-baseline: middle; font-size: 10.2px;" transform="translate(120.03033447265625,79)" y="0" x="0" id="text-entity-providers-6815346d-8deb-438a-974f-ab5cb2ab6828-attr-3-key" class="er entityLabel"/></g><rect height="14" width="79.9140625" y="452.5224914550781" x="115.35438537597656" class="er relationshipLabelBox"/><text style="text-anchor: middle; dominant-baseline: middle; font-size: 12px;" y="459.5224914550781" x="155.31141662597656" id="rel1" class="er relationshipLabel">enum:measure</text><rect height="14" width="36.525390625" y="457.25238037109375" x="292.7465515136719" class="er relationshipLabelBox"/><text style="text-anchor: middle; dominant-baseline: middle; font-size: 12px;" y="464.25238037109375" x="311.0092468261719" id="rel2" class="er relationshipLabel">Family</text><rect height="14" width="41.97265625" y="193.32232666015625" x="235.4378662109375" class="er relationshipLabelBox"/><text style="text-anchor: middle; dominant-baseline: middle; font-size: 12px;" y="200.32232666015625" x="256.4241943359375" id="rel3" class="er relationshipLabel">product</text><rect height="14" width="79.9140625" y="301.4786071777344" x="-19.862262725830078" class="er relationshipLabelBox"/><text style="text-anchor: middle; dominant-baseline: middle; font-size: 12px;" y="308.4786071777344" x="20.094768524169922" id="rel4" class="er relationshipLabel">enum:measure</text></svg>